<?xml version="1.0" encoding="UTF-8" standalone="no"?>
<svg
   width="210mm"
   height="297mm"
   viewBox="0 0 210 297"
   version="1.1"
   id="svg8"
   inkscape:version="1.1.2 (b8e25be833, 2022-02-05)"
   sodipodi:docname="yerba_games_logo2.svg"
   inkscape:export-filename="C:\Users\frane\Downloads\yerba_games_logo2.png"
   inkscape:export-xdpi="315"
   inkscape:export-ydpi="315"
   xmlns:inkscape="http://www.inkscape.org/namespaces/inkscape"
   xmlns:sodipodi="http://sodipodi.sourceforge.net/DTD/sodipodi-0.dtd"
   xmlns:xlink="http://www.w3.org/1999/xlink"
   xmlns="http://www.w3.org/2000/svg"
   xmlns:svg="http://www.w3.org/2000/svg"
   xmlns:rdf="http://www.w3.org/1999/02/22-rdf-syntax-ns#"
   xmlns:cc="http://creativecommons.org/ns#"
   xmlns:dc="http://purl.org/dc/elements/1.1/">
  <defs
     id="defs2">
    <linearGradient
       id="linearGradient1753"
       inkscape:swatch="solid">
      <stop
         style="stop-color:#000000;stop-opacity:1;"
         offset="0"
         id="stop1751" />
    </linearGradient>
    <marker
       style="overflow:visible"
       id="Arrow1Lstart"
       refX="0.0"
       refY="0.0"
       orient="auto"
       inkscape:stockid="Arrow1Lstart"
       inkscape:isstock="true">
      <path
         transform="scale(0.8) translate(12.5,0)"
         style="fill-rule:evenodd;stroke:#000000;stroke-width:1pt;stroke-opacity:1;fill:#000000;fill-opacity:1"
         d="M 0.0,0.0 L 5.0,-5.0 L -12.5,0.0 L 5.0,5.0 L 0.0,0.0 z "
         id="path1439" />
    </marker>
    <linearGradient
       id="linearGradient1435"
       inkscape:swatch="solid">
      <stop
         style="stop-color:#000000;stop-opacity:1;"
         offset="0"
         id="stop1433" />
    </linearGradient>
    <linearGradient
       id="linearGradient1429"
       inkscape:swatch="solid">
      <stop
         style="stop-color:#000000;stop-opacity:1;"
         offset="0"
         id="stop1427" />
    </linearGradient>
    <linearGradient
       id="linearGradient1423"
       inkscape:swatch="solid">
      <stop
         style="stop-color:#000000;stop-opacity:0;"
         offset="0"
         id="stop1421" />
    </linearGradient>
    <rect
       x="-0.52401555"
       y="88.509723"
       width="146.9625"
       height="69.294691"
       id="rect1403" />
    <linearGradient
       inkscape:collect="always"
       xlink:href="#linearGradient1435"
       id="linearGradient1437"
       x1="-134.37406"
       y1="42.614124"
       x2="31.034996"
       y2="42.614124"
       gradientUnits="userSpaceOnUse"
       gradientTransform="matrix(0.99962893,0,0,1.0136542,-0.01917298,0.57808103)" />
    <linearGradient
       inkscape:collect="always"
       xlink:href="#linearGradient1753"
       id="linearGradient1757"
       gradientUnits="userSpaceOnUse"
       x1="108.59779"
       y1="43.947762"
       x2="138.99114"
       y2="43.947762" />
  </defs>
  <sodipodi:namedview
     id="base"
     pagecolor="#ffffff"
     bordercolor="#666666"
     borderopacity="1.0"
     inkscape:pageopacity="0.0"
     inkscape:pageshadow="2"
     inkscape:zoom="0.62228968"
     inkscape:cx="71.510104"
     inkscape:cy="763.3101"
     inkscape:document-units="mm"
     inkscape:current-layer="g872"
     inkscape:document-rotation="0"
     showgrid="false"
     inkscape:window-width="1920"
     inkscape:window-height="1009"
     inkscape:window-x="-8"
     inkscape:window-y="-8"
     inkscape:window-maximized="1"
     inkscape:pagecheckerboard="0" />
  <metadata
     id="metadata5">
    <rdf:RDF>
      <cc:Work
         rdf:about="">
        <dc:format>image/svg+xml</dc:format>
        <dc:type
           rdf:resource="http://purl.org/dc/dcmitype/StillImage" />
      </cc:Work>
    </rdf:RDF>
  </metadata>
  <g
     inkscape:label="Warstwa 1"
     inkscape:groupmode="layer"
     id="layer1">
    <path
       id="path833"
       style="line-height:normal;text-indent:0;text-align:start;text-decoration:none;text-decoration-line:none;text-decoration-style:solid;text-decoration-color:#000000;text-transform:none;isolation:auto;mix-blend-mode:normal;stroke-width:5.36395"
       d="m 156.49572,87.155863 -13.28411,4.976484 c -6.87828,2.576106 -12.61027,7.492159 -16.28055,13.839293 -0.005,-10e-4 -0.006,-0.009 -0.0103,-0.0103 -0.0812,0.14182 -0.18288,0.25945 -0.25183,0.39732 v 0.0103 c -0.0115,0.0195 -0.0404,0.0413 -0.0404,0.0613 l -3.41531,5.97138 -1.76993,3.10084 -4.59874,8.04601 v 0.0115 c -0.0812,0.0128 -0.14215,0.0186 -0.22117,0.0404 -1.38061,0.2311 -2.83732,0.42618 -4.35801,0.55583 -0.0405,0.004 -0.0613,0.009 -0.1018,0.0115 -0.0103,6.5e-4 -0.0203,-6.8e-4 -0.0404,0 -1.59144,0.14194 -3.24884,0.20876 -4.9445,0.20876 -1.69485,0 -3.35433,-0.0812 -4.94516,-0.20876 -0.0115,-0.001 -0.0203,6.5e-4 -0.0404,0 -0.0405,-0.004 -0.0809,-0.006 -0.12142,-0.0115 -1.50628,-0.12155 -2.947422,-0.31632 -4.316262,-0.54541 -0.16219,-0.0203 -0.31225,-0.0606 -0.47038,-0.10116 -1.11299,-0.20272 -2.15188,-0.41995 -3.14325,-0.67132 -0.36288,-0.10129 -0.72803,-0.18244 -1.06862,-0.28379 -0.48251,-0.14197 -0.89806,-0.29171 -1.34002,-0.43972 -1.24476,-0.41965 -2.28981,-0.85595 -3.15303,-1.28978 -0.245302,-0.12155 -0.559491,-0.25342 -0.774398,-0.37709 -0.909309,-0.51759 -1.610293,-1.02084 -1.933052,-1.41766 0.05385,-0.0509 0.05045,-0.0427 0.187239,-0.18006 0.04055,-0.0405 -0.02037,0.041 0.04045,-0.0203 l -0.01039,-0.0115 c 1.662399,-1.80027 8.843761,-5.18591 21.089363,-5.18591 1.04609,0 1.99857,0.0612 2.97494,0.1018 l 5.82524,-10.27785 c -2.89642,-0.371 -5.86603,-0.5552 -8.80018,-0.5552 -12.256132,0 -25.215956,3.15969 -30.119833,9.94187 -1.315729,1.55901 -3.444155,4.22064 -6.055545,7.93054 -1.544815,2.19578 -3.079388,4.52188 -4.316257,6.80972 -0.541198,1.0015 -1.040127,1.94874 -1.467893,2.9547 -10.4273,12.93023 -17.04516,29.79676 -17.04516,47.45793 0,26.56376 26.950282,48.27604 59.003388,48.27604 31.99929,0 59.00338,-21.33926 59.00338,-48.27604 0,-17.66848 -6.62161,-34.5343 -17.05559,-47.46836 -0.43182,-1.01369 -0.93667,-1.96871 -1.48812,-2.98603 -1.25287,-2.31416 -2.81003,-4.69463 -4.38933,-6.93563 -1.57926,-2.24102 -3.17376,-4.32511 -4.47348,-5.96095 -0.55335,-0.69536 -0.84972,-0.99147 -1.23694,-1.46789 -0.40951,-0.6082 -0.88389,-1.18786 -1.41505,-1.73928 2.42467,-4.25878 6.24755,-7.54004 10.84349,-9.26142 h 0.0115 l 13.27365,-4.986283 z M 85.897928,118.97194 c -0.02071,0.0222 -0.01904,0.0224 -0.03784,0.0431 -6.68e-4,-0.001 -0.0019,-0.003 -0.0027,-0.003 0.0069,-0.0103 0.02021,-0.0203 0.02021,-0.0203 -2e-4,2e-4 0.02025,-0.0203 0.02025,-0.0203 z m 49.139802,8.66708 c 1.20131,1.74571 2.38611,3.54535 3.17653,5.00585 0.60212,1.11501 0.88633,2.13473 1.02621,2.50389 0.0115,0.0405 0.0607,0.14217 0.0607,0.18267 v 0.0115 c -0.0609,0.51292 -0.28176,1.17022 -1.34003,2.24229 -1.21426,1.23057 -3.39521,2.69864 -6.33868,3.96003 -4.41509,1.89148 -10.47299,3.34903 -17.33809,3.96006 -2.28844,0.20273 -4.66646,0.31445 -7.10329,0.31445 -9.747352,0 -18.554662,-1.75172 -24.441386,-4.27451 -2.943259,-1.26098 -5.124279,-2.73026 -6.338032,-3.96003 -0.606169,-0.61427 -0.952802,-1.10491 -1.151478,-1.50836 -0.14191,-0.29993 -0.162398,-0.51499 -0.182673,-0.73393 v -0.0115 -0.0103 c 0.02027,-0.0405 0.08142,-0.20673 0.142223,-0.39731 0.0056,-0.0201 0.01496,-0.0405 0.02025,-0.0608 0.162186,-0.50276 0.45793,-1.32784 0.91205,-2.16857 0.798762,-1.47781 1.998911,-3.28839 3.216317,-5.04954 0.910265,0.77243 2.041895,1.42483 3.174559,2.07397 0.121636,0.0812 0.277276,0.14221 0.409053,0.21921 0.956892,0.52506 1.915897,1.04616 2.996456,1.48811 0.101365,0.0405 0.202646,0.10103 0.304017,0.14158 0.80078,0.32034 1.699387,0.56964 2.556742,0.84941 0.54939,0.18246 1.05617,0.38727 1.62381,0.5454 4.9199,1.38466 10.615092,2.12682 16.772462,2.12682 6.15739,0 11.85324,-0.74149 16.77311,-2.12617 0.56764,-0.16215 1.0744,-0.36901 1.62382,-0.54539 0.85754,-0.27774 1.7555,-0.52708 2.55609,-0.84942 0.10129,-0.0405 0.20264,-0.10142 0.30402,-0.14223 1.08054,-0.44196 2.03915,-0.96302 2.99644,-1.48811 0.14197,-0.0812 0.27997,-0.14169 0.40971,-0.21855 1.13515,-0.64954 2.26753,-1.30537 3.17913,-2.0805 z m -66.124946,17.60885 c 1.283291,1.2772 2.737271,2.4033 4.347572,3.41594 1.603604,1.01976 3.364641,1.92183 5.258968,2.7342 7.702993,3.30107 17.674014,5.14349 28.663696,5.14349 10.98969,0 20.9609,-1.84242 28.66369,-5.14349 1.89351,-0.81094 3.65455,-1.71505 5.25896,-2.7342 1.6097,-1.01163 3.0649,-2.13913 4.34759,-3.41594 5.77701,9.82012 10.00515,20.91841 10.00515,32.74964 0,19.54699 -21.02461,37.54737 -48.27539,37.54737 -27.197073,0 -48.275387,-18.51776 -48.275387,-37.54737 0,-11.82777 4.22973,-22.93011 10.005151,-32.74964 z" />
    <g
       id="g872"
       transform="matrix(0.91637612,0,0,0.91637612,60.540612,129.76472)">
      <path
         id="circle846"
         d="m 78.675465,62.731328 a 5.9677814,5.9677814 0 0 0 -5.968728,5.968728 5.9677814,5.9677814 0 0 0 5.968728,5.965688 5.9677814,5.9677814 0 0 0 5.968732,-5.965688 5.9677814,5.9677814 0 0 0 -5.968732,-5.968728 z"
         style="stroke-width:1.55048" />
      <path
         id="circle848"
         d="m 90.615967,50.79085 a 5.9693319,5.9693319 0 0 0 -5.96873,5.968712 5.9693319,5.9693319 0 0 0 5.96873,5.971766 5.9693319,5.9693319 0 0 0 5.96872,-5.971766 5.9693319,5.9693319 0 0 0 -5.96872,-5.968712 z"
         style="stroke-width:1.55048" />
      <path
         id="circle850"
         d="m 66.741052,50.79085 a 5.9693319,5.9693319 0 0 0 -5.968727,5.968712 5.9693319,5.9693319 0 0 0 5.968727,5.971766 5.9693319,5.9693319 0 0 0 5.968726,-5.971766 5.9693319,5.9693319 0 0 0 -5.968726,-5.968712 z"
         style="stroke-width:1.55048" />
      <path
         id="circle852"
         d="m 78.675465,38.856419 a 5.9677814,5.9677814 0 0 0 -5.968728,5.965704 5.9677814,5.9677814 0 0 0 5.968728,5.968727 5.9677814,5.9677814 0 0 0 5.968732,-5.968727 5.9677814,5.9677814 0 0 0 -5.968732,-5.965704 z"
         style="stroke-width:1.55048" />
      <path
         id="path854"
         d="m 25.386605,38.408753 c -1.648156,0 -2.985876,1.334696 -2.985876,2.982852 v 8.951579 H 13.44915 c -1.648156,0 -2.982852,1.336169 -2.982852,2.985876 v 5.968727 c 0,1.648156 1.336247,2.988899 2.982852,2.988899 h 8.951579 v 8.94854 c 0,1.649706 1.33772,2.985891 2.985876,2.985891 h 5.968727 c 1.648156,0 2.982852,-1.334634 2.982852,-2.985891 v -8.94854 h 8.954603 c 1.648155,0 2.982836,-1.339193 2.982836,-2.988899 V 53.32906 c 0,-1.649707 -1.336231,-2.985891 -2.982836,-2.985876 h -8.954603 v -8.951579 c 0,-1.646605 -1.336247,-2.982852 -2.982852,-2.982852 z"
         style="stroke-width:1.55048" />
      <path
         style="fill:#0000ff;fill-opacity:1;fill-rule:evenodd;stroke:#000000;stroke-width:0.00109126;stroke-dasharray:0, 0.01200380000000000;stroke-dashoffset:0.0109126"
         id="path1411"
         sodipodi:type="arc"
         sodipodi:cx="230.8481"
         sodipodi:cy="-56.305332"
         sodipodi:rx="18.044456"
         sodipodi:ry="32.151943"
         sodipodi:start="0"
         sodipodi:end="6.9036499e-06"
         sodipodi:arc-type="slice"
         d="m 248.89256,-56.305332 a 18.044456,32.151943 0 0 1 0,2.22e-4 l -18.04446,-2.22e-4 z" />
      <ellipse
         style="fill:none;fill-opacity:1;fill-rule:evenodd;stroke:url(#linearGradient1437);stroke-width:9.33705;stroke-miterlimit:4;stroke-dasharray:none;stroke-dashoffset:10912.5;stroke-opacity:1"
         id="path1417"
         cx="-51.669533"
         cy="43.774067"
         rx="82.673843"
         ry="83.833092"
         transform="scale(-1,1)" />
      <text
         xml:space="preserve"
         id="text1401"
         style="font-style:normal;font-variant:normal;font-weight:bold;font-stretch:normal;font-size:13.8589px;line-height:1.15;font-family:Ebrima;-inkscape-font-specification:'Ebrima Bold';text-align:center;text-anchor:middle;white-space:pre;fill-opacity:1;stroke:#000000;stroke-width:0.818441;stroke-miterlimit:4;stroke-dasharray:none;stroke-opacity:1;image-rendering:auto"
         transform="matrix(0.15989445,1,-1,0,75.724878,-15.560656)"><textPath
           xlink:href="#path1417"
           startOffset="50%"
           id="textPath1419"
           style="fill:#000000;fill-opacity:1;stroke:#000000;stroke-width:0.818441;stroke-miterlimit:4;stroke-dasharray:none;stroke-opacity:1">YERBA GAMES</textPath></text>
      <g
         aria-label="YERBA GAMES"
         transform="matrix(0.15989445,1,-1,0,75.724878,-15.560656)"
         id="text7384"
         style="font-weight:bold;font-size:13.8589px;line-height:1.15;font-family:Ebrima;-inkscape-font-specification:'Ebrima Bold';text-align:center;text-anchor:middle;white-space:pre;stroke:#000000;stroke-width:0.818441">
        <path
           d="m 117.10246,76.898801 3.8931,5.824733 3.00585,1.695761 -1.07398,1.903703 -2.97048,-1.675811 -6.99414,-0.410585 1.22693,-2.174818 3.92128,0.417415 q 0.10835,0.01451 0.7993,0.194532 l 0.0133,-0.02358 q -0.38113,-0.316021 -0.56293,-0.558436 l -2.39538,-3.177234 z"
           id="path9552" />
        <path
           d="m 128.35206,75.33437 -2.3713,5.314633 -8.86184,-3.954007 2.28031,-5.110699 1.62529,0.725177 -1.3897,3.114622 1.97136,0.879587 1.29319,-2.898328 1.61911,0.722419 -1.29319,2.898329 2.02698,0.904403 1.48068,-3.318555 z"
           id="path9554" />
        <path
           d="m 131.50088,66.159688 -0.79422,2.381634 -2.84619,0.641605 q -0.32314,0.07058 -0.58422,0.147579 -0.26108,0.077 -0.4601,0.181833 -0.20331,0.09627 -0.336,0.237488 -0.13698,0.132658 -0.2012,0.325243 l -0.18625,0.558496 3.52431,1.175281 -0.69147,2.073498 -9.20556,-3.069859 1.09607,-3.286783 q 1.11748,-3.350979 3.62109,-2.51608 0.48146,0.160558 0.84307,0.445215 0.35519,0.282517 0.59267,0.661315 0.23748,0.378798 0.34656,0.843176 0.11122,0.457959 0.0897,0.971538 l 0.0257,0.0086 q 0.1327,-0.184016 0.34457,-0.327363 0.20545,-0.145488 0.45798,-0.261011 0.25252,-0.115523 0.53073,-0.201084 0.27392,-0.09412 0.53072,-0.158285 z m -9.53591,3.097365 2.56138,0.854166 0.2997,-0.89873 q 0.22264,-0.667628 -0.0277,-1.200502 -0.25458,-0.541435 -0.83233,-0.734104 -1.20687,-0.402464 -1.68854,1.041924 z"
           id="path9556" />
        <path
           d="m 131.67135,65.258779 -9.47988,-2.073228 0.75469,-3.450835 q 0.34698,-1.586591 1.11524,-2.312156 0.76825,-0.725565 1.82598,-0.494243 0.76685,0.167709 1.22777,0.815744 0.46237,0.641423 0.51076,1.497096 l 0.0264,0.0058 q 0.34681,-0.983982 1.09978,-1.449662 0.75443,-0.472291 1.64689,-0.277113 1.30232,0.284816 1.86532,1.384647 0.55639,1.098385 0.20362,2.711419 z m -7.43953,-3.864423 2.24767,0.491561 0.2053,-0.938733 q 0.14458,-0.66108 -0.0903,-1.107292 -0.24008,-0.454268 -0.802,-0.577158 -1.0445,-0.228431 -1.3857,1.331716 z m 3.83426,0.838544 2.49888,0.5465 0.25301,-1.156889 q 0.16193,-0.740409 -0.0908,-1.232069 -0.25123,-0.498271 -0.84621,-0.62839 -0.56852,-0.124336 -0.98354,0.221302 -0.41356,0.339027 -0.57549,1.079436 z"
           id="path9558" />
        <path
           d="m 134.37038,48.067794 -0.25058,2.368781 -2.21932,0.459321 -0.36305,3.432042 2.07481,0.906766 -0.24916,2.355323 -9.27849,-4.533621 0.27264,-2.577396 z m -4.19149,3.14954 -3.35324,0.69322 q -0.3755,0.07596 -0.88519,0.06968 l -0.006,0.05384 q 0.4204,0.07849 0.82339,0.257221 l 3.15948,1.395772 z"
           id="path9560" />
        <path
           d="m 133.35445,35.100176 q 0.89292,1.375727 1.00471,3.484082 0.12399,2.338111 -1.09504,3.758061 -1.22614,1.413551 -3.49668,1.53395 -2.28405,0.121115 -3.80152,-1.275707 -1.51748,-1.396821 -1.64719,-3.843053 -0.0817,-1.540721 0.28168,-2.739109 l 2.04753,-0.108573 q -0.58924,1.156152 -0.50324,2.777963 0.072,1.358267 1.00277,2.169535 0.92363,0.804868 2.39678,0.726753 1.49342,-0.07919 2.27059,-0.886152 0.77681,-0.813718 0.70765,-2.117924 -0.0416,-0.783876 -0.28893,-1.231564 l -1.89211,0.100332 0.10284,1.939416 -1.74345,0.09245 -0.21858,-4.122104 z"
           id="path9562" />
        <path
           d="m 132.348,24.770597 0.39814,2.348488 -2.01294,1.041349 0.57686,3.402638 2.24256,0.313035 0.39589,2.335144 -10.15786,-1.860702 -0.43321,-2.555314 z m -3.18572,4.164066 -3.04163,1.572654 q -0.34105,0.174501 -0.83352,0.306036 l 0.009,0.05337 q 0.42598,-0.0379 0.86225,0.02541 l 3.41897,0.491092 z"
           id="path9564" />
        <path
           d="m 128.79745,13.017194 0.64711,2.05941 -5.5391,1.740514 q -0.89736,0.281971 -2.00628,0.545301 l 0.0162,0.05165 q 0.90289,-0.106376 1.3179,-0.09492 l 6.97603,0.191302 0.53554,1.704339 -5.5361,4.165465 q -0.22338,0.169496 -1.19988,0.696227 l 0.0183,0.0581 q 1.34226,-0.513983 2.37519,-0.838554 l 5.11948,-1.608657 0.59031,1.878647 -9.25766,2.90897 -0.95951,-3.053607 4.89308,-3.615844 q 0.5875,-0.432868 1.21999,-0.745104 l -0.0122,-0.03873 q -0.82302,0.06709 -1.45199,0.05193 l -6.06891,-0.17133 -0.93517,-2.976138 z"
           id="path9566" />
        <path
           d="m 125.42368,5.7175327 2.41191,5.2963243 -8.83131,4.021728 -2.31936,-5.0930938 1.61969,-0.7375971 1.41349,3.1038929 1.96457,-0.894652 -1.31534,-2.8883449 1.61353,-0.7347926 1.31534,2.8883445 2.01999,-0.919893 -1.50604,-3.3071237 z"
           id="path9568" />
        <path
           d="m 124.59255,4.9103134 -1.88193,1.0712142 q 0.13808,-0.7560224 0.0142,-1.479749 -0.12973,-0.720379 -0.47788,-1.3320086 -0.2042,-0.3587443 -0.41953,-0.5865687 -0.21868,-0.2337055 -0.43084,-0.3465337 -0.2214,-0.1153618 -0.42452,-0.1165414 -0.209,0.00217 -0.39131,0.1059417 -0.24701,0.1405969 -0.36074,0.3922111 -0.11374,0.2516143 -0.13781,0.5923498 -0.0274,0.3348544 0.0105,0.7571106 0.0379,0.4222562 0.10006,0.9007895 0.15071,1.2223451 -0.16543,2.0485745 -0.31949,0.8203484 -1.16048,1.2990473 -0.65868,0.3749249 -1.2798,0.3780811 -0.62701,0.0065 -1.19058,-0.2722652 -0.56692,-0.2846498 -1.04952,-0.8041762 -0.48848,-0.5161789 -0.8701,-1.186619 -0.37492,-0.658678 -0.58047,-1.2113142 -0.21479,-0.5551697 -0.29449,-1.0782179 l 1.75844,-1.0009158 q -0.0265,0.2954066 0.006,0.6118952 0.0288,0.3106076 0.10892,0.6154255 0.0742,0.3081655 0.18954,0.5928982 0.112,0.2788516 0.24591,0.5140938 0.18411,0.3234579 0.39944,0.5512823 0.20945,0.231172 0.42497,0.3498813 0.21551,0.1187093 0.43121,0.1283036 0.20981,0.012942 0.40389,-0.097527 0.21172,-0.1205116 0.31866,-0.3293304 0.10107,-0.2054712 0.13681,-0.4983443 0.0299,-0.2895254 0.01,-0.6672667 -0.0262,-0.3743938 -0.0842,-0.8319363 -0.0762,-0.6262822 -0.0627,-1.1634432 0.004,-0.5396944 0.14017,-0.9985908 0.1359,-0.4588964 0.43702,-0.83274174 0.29523,-0.37049778 0.80688,-0.66173415 0.70573,-0.40170533 1.34196,-0.40567551 0.627,-0.0065037 1.18805,0.28149372 0.55516,0.29134496 1.03269,0.82932858 0.47418,0.5321025 0.85914,1.2084237 0.39501,0.6939643 0.63558,1.3901879 0.23722,0.6903426 0.26308,1.2829665 z"
           id="path9570" />
      </g>
    </g>
  </g>
</svg>
